<?xml version="1.0" encoding="utf-8"?>
<!-- Svg Vector Icons : http://www.onlinewebfonts.com/icon -->
<!DOCTYPE svg PUBLIC "-//W3C//DTD SVG 1.1//EN" "http://www.w3.org/Graphics/SVG/1.1/DTD/svg11.dtd">
<svg version="1.1" xmlns="http://www.w3.org/2000/svg" xmlns:xlink="http://www.w3.org/1999/xlink" x="0px" y="0px" viewBox="0 0 1000 1000" enable-background="new 0 0 1000 1000" xml:space="preserve">
<metadata> Svg Vector Icons : http://www.onlinewebfonts.com/icon </metadata>
<g><path d="M12.9,192.1c-5,8-3.6,19.7,4,34.9c10.7,18.4,26.3,44.7,47,79l30.9,51.6l-32.1,70l-2.9,16.7C58,455.4,62.8,464,74.3,470c11.5,6.9,21.2,6.1,29.2-2.3l12.1-12.6l108.8-234.8l4-17.2c2.7-11.5-2.5-20.3-15.5-26.3c-13-6.1-23-5.7-29.8,1.1c-6.8,6.9-11.9,13-14.9,18.4c-3.1,5.4-10.9,22-23.5,49.9l-18.9,41.7l-22.4-40.1C88.4,221,78,203,71.9,193.8c-6.1-10-13.4-16.5-21.8-19.5c-8.4-3.1-18.4-1.1-29.8,5.7L12.9,192.1L12.9,192.1z M147.6,677.5c17.6-25.2,33.6-52.2,48.1-80.8s27.1-59,37.8-91.1l41.2,19.5c-6.1,21.4-13,40.3-20.7,56.7l-11.5,24.6l-1.1,220h-38.9V671.7c-2.3,3.8-5.5,9.2-9.8,16.1c-4.2,6.9-7.8,11.9-10.9,14.9L147.6,677.5L147.6,677.5z M216.3,285.5c0,30.5,10,56.7,29.8,78.5c19.8,21.7,43.9,32.6,72.2,32.6c27.5,0,51.4-10.9,71.6-32.6c20.3-21.8,30.3-47.9,30.3-78.5c0-30.5-10.1-56.7-30.3-78.5c-20.3-21.8-44.1-32.6-71.6-32.6c-28.2,0-52.3,10.9-72.2,32.6C226.2,228.8,216.3,255,216.3,285.5L216.3,285.5z M235.8,798.9c19.9-16.8,38.8-38.8,56.7-65.9c18-27.1,27.7-61.7,29.2-103.7h-66.5v-34.4h70V509h38.9v85.9h123.7v34.4h-75.6V784c0,2.3,0.6,4,1.7,5.2c1.1,1.1,2.9,1.7,5.2,1.7h24c2.3,0,4.4-0.8,6.3-2.3c1.9-1.5,3.3-3.8,4-6.9c0.8-3.1,1.5-10.9,2.3-23.5c0.8-12.6,1.1-23.8,1.1-33.8l41.2,12.6v12.1v20.1c0,21.4-5.7,36.5-17.2,45.3c-11.5,8.8-19.9,13.2-25.2,13.2l-51.6-1.1c-8.4,0-15.9-3.6-22.4-10.9c-6.5-7.3-9.8-14.7-9.8-22.4l-1.1-163.9h-1.1h-4.6c-1.5,48.9-13.2,90.3-34.9,124.3c-21.7,34-41.8,58.7-60.2,73.9L235.8,798.9L235.8,798.9z M271.3,285.5c0-17.6,4.6-31.5,13.8-41.8c9.2-10.3,20.7-15.5,34.4-15.5c13,0,23.8,5.2,32.6,15.5c8.8,10.3,13.2,24.2,13.2,41.8c0,16.8-4.4,30.5-13.2,41.2c-8.8,10.7-20.1,16.1-33.8,16.1c-13,0-24-5.4-33.2-16.1C275.9,316,271.3,302.3,271.3,285.5L271.3,285.5z M391.7,538.8l26.3-28.6l63.1,50.4l-26.3,28.6L391.7,538.8L391.7,538.8z M426.1,315.3c0,20.7,6.7,39.3,20.1,56.2c13.4,16.8,36.8,25.2,70.5,25.2c33.7,0,57.3-8,71-24c13.8-16.1,20.7-35.1,20.7-57.3v-56.2v-50.4c0-7.7-2.1-14.7-6.3-21.2c-4.2-6.5-10.9-9.8-20.1-9.8c-10.7,0-17.8,3.6-21.2,10.9c-3.4,7.3-5.2,14.4-5.2,21.2v49.3v47c0,9.2-2.5,19.1-7.5,29.8c-5,10.7-15.1,16.1-30.3,16.1c-15.3,0-25.4-5-30.3-14.9c-5-10-7.5-19.9-7.5-29.8v-47.5v-49.9c0-6.9-1.7-14-5.2-21.2c-3.4-7.3-10.1-10.9-20.1-10.9c-12.2,0-20.1,3.8-23.5,11.5s-5.2,14.5-5.2,20.7v1.1v45.8L426.1,315.3L426.1,315.3z M517.7,797.8c0,10.7,3.4,18.4,10.3,23c6.9,4.6,15.3,6.9,25.2,6.9h56.2h50.4c6.1,0,12.1-2.5,17.8-7.5c5.7-5,8.6-12.8,8.6-23.5V691.8v-92.3c0-5.4-0.6-9.6-1.7-12.6c-1.1-3.1-4.4-4.6-9.8-4.6h-21.2h-13.2v-30.9h45.8v-32.1H517.7v32.1h52.7v30.9h-40.1l-6.3,1.7c-4.2,1.1-6.3,4.8-6.3,10.9v98V797.8L517.7,797.8z M556.7,788.6v-32.1h97.4v32.1v3.4c0,2.3-2.3,3.4-6.9,3.4h-83.6c-3.1,0-5-1.1-5.7-3.4L556.7,788.6L556.7,788.6z M556.7,724.5v-25.2l18.4,13.8c4.6-4.6,10.1-11.7,16.7-21.2c6.5-9.6,10.1-25.7,10.9-48.7v-21.8h6.9v57.3c-0.8,6.1,1,11.9,5.2,17.2c4.2,5.4,10.5,8.4,18.9,9.2h20.7v19.5L556.7,724.5L556.7,724.5z M556.7,684.4v-63.1h13.8v23c0,8.4-1.5,16.5-4.6,24C562.8,675.9,559.7,681.3,556.7,684.4L556.7,684.4z M602.5,582.4v-30.9h6.9v30.9H602.5L602.5,582.4z M617.5,363.4c0,6.9,2.3,14,6.9,21.2c4.6,7.3,12.2,10.9,23,10.9c9.2,0,16.5-3.1,21.8-9.2c5.4-6.1,8-13.4,8-21.8v-52.7l33.8,31.5c22.6,21.1,37.2,34.5,44.1,40.7c6.1,5.4,13.6,8.2,22.4,8.6c8.8,0.4,16.3-2.1,22.4-7.5c5.4-5.4,8.4-11.5,9.2-18.4c0.8-6.9-1.9-13.8-8-20.7l-61.9-58.5l23-23.5c15.3-15.7,25.6-26.9,30.9-33.8c6.1-6.9,9.2-13.4,9.2-19.5c0-6.1-2.7-11.9-8-17.2c-4.6-4.6-10.7-7.7-18.4-9.2s-14.5,0.8-20.7,6.9c-6.9,5.4-21.6,19.7-44.1,43l-33.8,34.9v-32.1v-24c0-8.4-2.7-15.7-8-21.8c-5.4-6.1-12.6-9.2-21.8-9.2c-10.7,0-18.4,3.6-23,10.9c-4.6,7.3-6.9,14.4-6.9,21.2v49.3v47v50.7V363.4L617.5,363.4z M640.3,668.3v-47h13.8v53.9h-9.2c-1.5,0-2.7-0.6-3.4-1.7C640.7,672.3,640.3,670.6,640.3,668.3L640.3,668.3z M691.9,620.2l33.2,5.7c1.5-3.8,2.9-8.2,4-13.2s2.9-12.8,5.2-23.5h32.1V635h-67.7v30.9H866V635h-65.4v-45.8h51.6v-32.1h-50.4v-44.7h-35.5v44.7h-26.3c1.5-6.1,2.5-12.1,2.9-17.8c0.4-5.7,0.2-10.5-0.6-14.4h-36.6c-1.5,21.4-3.3,39.1-5.2,53.3C698.6,592.5,695.7,606.4,691.9,620.2L691.9,620.2z M705.7,795.5c0,10.7,2.3,18.8,6.9,24c4.6,5.3,11.1,8,19.5,8h41.2h49.3c13,0,21.2-2.5,24.6-7.5s5.2-11.3,5.2-18.9v-63.6v-52.2H705.7v47.2V795.5L705.7,795.5z M743.5,787.5v-70h75.6v70l-1.1,4c-0.8,2.7-3.4,4-8,4h-29.2h-26.9c-5.4,0-8.4-1.3-9.2-4L743.5,787.5L743.5,787.5z M807.7,315.3c0,20.7,6.7,39.3,20.1,56.2c13.4,16.8,36.8,25.2,70.5,25.2c34.4,0,58.3-8,71.6-24c13.4-16.1,20.1-35.1,20.1-57.3v-56.2v-50.4c0-7.7-2.1-14.7-6.3-21.2c-4.2-6.5-10.9-9.8-20.1-9.8c-10.7,0-17.8,3.6-21.2,10.9c-3.4,7.3-5.2,14.4-5.2,21.2v49.3v47c0,9.2-2.3,19.1-6.9,29.8c-4.6,10.7-14.5,16.1-29.8,16.1c-15.3,0-25.5-5-30.9-14.9c-5.4-10-8-19.9-8-29.8v-47.5v-49.9c0-6.9-1.5-14-4.6-21.2c-3.1-7.3-10-10.9-20.7-10.9c-11.5,0-19.1,3.8-23,11.5s-5.7,14.5-5.7,20.7v47L807.7,315.3L807.7,315.3z"/></g>
</svg>